<svg width="53" height="61" viewBox="0 0 53 61" fill="none" xmlns="http://www.w3.org/2000/svg">
<g clip-path="url(#clip0_2_6)">
<path d="M20.7843 13.8808C20.123 13.7864 20.0915 13.7549 20.4064 13.7234C21.0047 13.629 22.3904 13.7549 23.3666 13.9752C25.634 14.5103 27.6809 15.8953 29.8538 18.3189L30.4207 18.9799L31.2394 18.854C34.735 18.2874 38.325 18.7281 41.3167 20.113C42.1355 20.4907 43.4266 21.2461 43.5841 21.435C43.647 21.4979 43.7415 21.9071 43.8045 22.3163C44.0249 23.7957 43.9305 24.8973 43.4581 25.7472C43.2062 26.2193 43.2062 26.3452 43.3636 26.7544C43.4896 27.0691 43.8675 27.2895 44.2139 27.2895C44.9697 27.2895 45.757 26.0934 46.1349 24.4252L46.2923 23.7642L46.5757 24.079C48.1818 25.8731 49.4415 28.3597 49.6304 30.1223L49.6934 30.5944L49.41 30.1852C48.9376 29.4613 48.4967 28.9892 47.8984 28.58C46.8277 27.856 45.694 27.6357 42.7023 27.4783C39.994 27.321 38.451 27.1006 36.9394 26.597C34.3571 25.7472 33.0344 24.6455 29.9798 20.5851C28.6257 18.791 27.7754 17.8153 26.9251 16.9969C25.0671 15.2028 23.2091 14.2585 20.7843 13.8808Z" fill="#FF007A"/>
<path d="M44.2454 17.8782C44.3084 16.6822 44.4659 15.8953 44.8123 15.1713C44.9382 14.888 45.0642 14.6362 45.0957 14.6362C45.1272 14.6362 45.0642 14.8566 44.9697 15.1084C44.7178 15.8008 44.6863 16.7766 44.8438 17.8782C45.0642 19.2946 45.1587 19.4835 46.6703 21.0258C47.3631 21.7498 48.1818 22.6625 48.4968 23.0403L49.0321 23.7327L48.4968 23.2291C47.8354 22.5996 46.3238 21.4035 45.9774 21.2461C45.757 21.1202 45.7255 21.1202 45.5681 21.2776C45.4421 21.4035 45.4106 21.5924 45.4106 22.5052C45.3791 23.9216 45.1902 24.8029 44.7178 25.7157C44.4659 26.1878 44.4344 26.0934 44.6548 25.5583C44.8123 25.1491 44.8438 24.9603 44.8438 23.6068C44.8438 20.8684 44.5288 20.2074 42.6079 19.1058C42.1355 18.8225 41.3167 18.4133 40.8443 18.193C40.3405 17.9727 39.9626 17.7838 39.9941 17.7838C40.0571 17.7209 41.9151 18.2559 42.6394 18.5707C43.7416 19.0114 43.9305 19.0428 44.0565 19.0114C44.1509 18.9169 44.2139 18.6651 44.2454 17.8782Z" fill="#FF007A"/>
<path d="M22.0755 22.5681C20.7528 20.7425 19.9026 17.9097 20.0915 15.8008L20.1545 15.1398L20.4694 15.2028C21.0363 15.2972 22.0125 15.6749 22.4849 15.9582C23.7445 16.7136 24.3114 17.7523 24.8467 20.3333C25.0042 21.0887 25.2246 21.9701 25.3191 22.2534C25.4765 22.7255 26.0749 23.8271 26.5787 24.5196C26.9251 25.0232 26.7047 25.275 25.9174 25.2121C24.7208 25.0862 23.1147 23.9845 22.0755 22.5681Z" fill="#FF007A"/>
<path d="M42.6393 36.2601C36.404 33.742 34.1996 31.5702 34.1996 27.8875C34.1996 27.3524 34.2311 26.9118 34.2311 26.9118C34.2626 26.9118 34.4831 27.1006 34.7665 27.321C36.0261 28.3282 37.4433 28.7688 41.3797 29.3354C43.6786 29.6816 45.0012 29.9334 46.1979 30.3426C50.0083 31.6017 52.3702 34.1827 52.937 37.6765C53.0945 38.6837 53 40.6037 52.7481 41.6109C52.5276 42.3978 51.8978 43.8457 51.7403 43.8772C51.7089 43.8772 51.6459 43.7198 51.6459 43.468C51.5829 42.146 50.9216 40.887 49.8194 39.9113C48.4967 38.7781 46.7962 37.9283 42.6393 36.2601Z" fill="#FF007A"/>
<path d="M38.2305 37.2988C38.1676 36.8266 38.0101 36.2286 37.9156 35.9768L37.7582 35.5046L38.0416 35.8509C38.451 36.323 38.7659 36.8896 39.0493 37.6765C39.2698 38.2745 39.2698 38.4634 39.2698 39.4391C39.2698 40.3834 39.2383 40.6037 39.0493 41.1388C38.7344 41.9886 38.3565 42.5867 37.7267 43.2477C36.593 44.4123 35.1129 45.0418 33.003 45.3251C32.6251 45.3565 31.5544 45.451 30.6096 45.5139C28.2478 45.6398 26.6732 45.8916 25.2561 46.3952C25.0671 46.4582 24.8782 46.5211 24.8467 46.4897C24.7837 46.4267 25.76 45.8602 26.5472 45.4824C27.6494 44.9474 28.7831 44.6641 31.271 44.2234C32.4991 44.0346 33.7588 43.7828 34.0737 43.6569C37.1913 42.6811 38.7344 40.2575 38.2305 37.2988Z" fill="#FF007A"/>
<path d="M41.0963 42.3663C40.2775 40.5722 40.0886 38.8725 40.5294 37.2673C40.5924 37.1099 40.6554 36.9525 40.7184 36.9525C40.7814 36.9525 40.9703 37.0469 41.1593 37.1728C41.5372 37.4246 42.3244 37.8653 44.3399 38.967C46.8907 40.3519 48.3393 41.4221 49.347 42.6496C50.2288 43.7198 50.7641 44.9474 51.0161 46.4582C51.1735 47.308 51.0791 49.354 50.8586 50.2038C50.1658 52.8792 48.5912 55.0196 46.2924 56.2471C45.946 56.436 45.6625 56.5619 45.631 56.5619C45.5995 56.5619 45.7255 56.2471 45.9145 55.8694C46.6703 54.2642 46.7647 52.7219 46.1979 50.9907C45.8515 49.9205 45.1272 48.63 43.6786 46.4582C41.9465 43.9401 41.5372 43.2791 41.0963 42.3663Z" fill="#FF007A"/>
<path d="M17.6352 51.9979C19.9656 50.0464 22.8313 48.6615 25.4766 48.2208C26.6102 48.032 28.4997 48.0949 29.5389 48.3782C31.208 48.8189 32.7196 49.7631 33.5069 50.9278C34.2626 52.0609 34.6091 53.0366 34.9555 55.2085C35.0814 56.0583 35.2389 56.9396 35.2704 57.1285C35.5223 58.2616 36.0262 59.1429 36.656 59.6151C37.6322 60.339 39.3328 60.3705 41.0018 59.741C41.2852 59.6465 41.5372 59.5521 41.5372 59.5836C41.6001 59.6465 40.7499 60.2131 40.183 60.4964C39.3957 60.9056 38.7659 61.0315 37.9156 61.0315C36.4041 61.0315 35.1129 60.2446 34.0737 58.6708C33.8533 58.356 33.4124 57.4432 33.0345 56.5934C31.9323 54.0439 31.3654 53.2884 30.0743 52.4386C28.9406 51.7146 27.492 51.5573 26.3898 52.0924C24.9412 52.7848 24.5633 54.6419 25.571 55.775C25.9804 56.2472 26.7362 56.6249 27.366 56.7193C28.5312 56.8767 29.5389 55.9639 29.5389 54.7993C29.5389 54.0439 29.2555 53.6032 28.4997 53.257C27.492 52.8163 26.3898 53.3199 26.4213 54.2957C26.4213 54.7048 26.6102 54.9566 27.0196 55.1455C27.2716 55.2714 27.2716 55.2714 27.0826 55.2399C26.1694 55.0511 25.9489 53.9179 26.6732 53.194C27.555 52.3127 29.413 52.6904 30.0428 53.9179C30.2947 54.4216 30.3262 55.4288 30.1058 56.0583C29.5704 57.4432 28.0588 58.1672 26.5158 57.758C25.4765 57.4747 25.0357 57.1914 23.776 55.9009C21.5716 53.6347 20.7214 53.194 17.5722 52.7219L16.9739 52.6274L17.6352 51.9979Z" fill="#FF007A"/>
<path fill-rule="evenodd" clip-rule="evenodd" d="M1.0707 1.35346C8.4082 10.2611 19.7136 24.1104 20.2804 24.8658C20.7528 25.4954 20.5639 26.0934 19.7766 26.5341C19.3357 26.7859 18.4225 27.0377 17.9816 27.0377C17.4777 27.0377 16.8794 26.7859 16.47 26.3767C16.1866 26.0934 14.9584 24.2993 12.1872 19.9871C10.0772 16.6821 8.28223 13.9438 8.25074 13.9123C8.12477 13.8493 8.12477 13.8493 11.9667 20.711C14.3916 25.0232 15.1788 26.5655 15.1788 26.7544C15.1788 27.1636 15.0529 27.3839 14.549 27.9505C13.6987 28.8947 13.3209 29.9649 13.0374 32.1997C12.7225 34.6863 11.8722 36.4489 9.44741 39.4391C8.0303 41.2018 7.80986 41.5165 7.46345 42.2405C7.02257 43.1218 6.89661 43.6254 6.83363 44.7585C6.77064 45.9546 6.89661 46.71 7.24301 47.8431C7.55793 48.8504 7.90433 49.5113 8.7546 50.8019C9.4789 51.935 9.91978 52.7848 9.91978 53.0996C9.91978 53.3514 9.98276 53.3514 11.1165 53.0996C13.8247 52.4701 16.0606 51.3999 17.2888 50.0779C18.0446 49.2595 18.2335 48.8189 18.2335 47.6858C18.2335 46.9618 18.202 46.8044 18.0131 46.3638C17.6982 45.6713 17.0998 45.1047 15.8087 44.2234C14.1081 43.0588 13.3838 42.1146 13.1949 40.8555C13.0374 39.7853 13.2264 39.0614 14.1711 37.0784C15.1474 35.0325 15.3993 34.1827 15.5567 32.1053C15.6512 30.7833 15.8087 30.2482 16.1866 29.839C16.596 29.3983 16.9424 29.241 17.9186 29.1151C19.5247 28.8947 20.5639 28.4855 21.3826 27.6987C22.1069 27.0377 22.4219 26.3767 22.4534 25.4009L22.4848 24.677L22.0755 24.2363C20.5954 22.5366 0.0944711 0 -3.05707e-06 0C-0.0314944 0 0.472368 0.598039 1.0707 1.35346ZM10.7386 46.112C11.085 45.5139 10.896 44.7585 10.3292 44.3808C9.79382 44.0346 8.97504 44.1919 8.97504 44.6641C8.97504 44.79 9.03802 44.9159 9.22697 44.9788C9.51039 45.1362 9.54189 45.2936 9.32145 45.6398C9.10101 45.9861 9.10101 46.3008 9.38443 46.5212C9.82531 46.8674 10.4236 46.6785 10.7386 46.112Z" fill="#FF007A"/>
<path fill-rule="evenodd" clip-rule="evenodd" d="M23.4926 29.5557C22.7368 29.7761 22.0125 30.5944 21.792 31.4128C21.6661 31.9164 21.7291 32.8292 21.9495 33.1125C22.2959 33.5531 22.6108 33.6791 23.4926 33.6791C25.2246 33.6791 26.7047 32.9236 26.8622 32.0108C27.0196 31.2554 26.3583 30.2167 25.445 29.7446C24.9727 29.4928 23.9964 29.3984 23.4926 29.5557ZM25.508 31.1295C25.76 30.7518 25.6655 30.3426 25.1931 30.0593C24.3428 29.5243 23.0517 29.9649 23.0517 30.7833C23.0517 31.1925 23.713 31.6331 24.3428 31.6331C24.7522 31.6331 25.3191 31.3813 25.508 31.1295Z" fill="#FF007A"/>
</g>
<defs>
<clipPath id="clip0_2_6">
<rect width="53" height="61" fill="white"/>
</clipPath>
</defs>
</svg>
